# xmcd
#
# Track frame offsets: 
#        150
#        10003
#        21069
#        32905
#        50542
#        65419
#        82265
#        103068
#        115331
#        130163
#        143457
#        151700
#        163289
#        177470
#        192621
#
# Disc length: 2754 seconds
#
# Revision: 4
# Processed by: cddbd v1.5.2PL0 Copyright (c) Steve Scherf et al.
# Submitted via: ExactAudioCopy v0.95a5
#
DISCID=cc0ac00f
DTITLE=Johnny Cash - American III: Solitary Man
DYEAR=2000
DGENRE=Country
TTITLE0=I Won't Back Down
TTITLE1=Solitary Man
TTITLE2=That Lucky Old Sun (Just Rolls Around Heaven All Day)
TTITLE3=One
TTITLE4=Nobody
TTITLE5=I See A Darkness
TTITLE6=The Mercy Seat
TTITLE7=Would You Lay With Me (In A Field Of Stone)
TTITLE8=Field Of Diamonds
TTITLE9=Before My Time
TTITLE10=Country Trash
TTITLE11=Mary Of The Wild Moor
TTITLE12=I'm Leavin' Now
TTITLE13=Wayfaring Stranger
TTITLE14=I'm On Fire
EXTD=
EXTT0=
EXTT1=
EXTT2=
EXTT3=
EXTT4=
EXTT5=
EXTT6=
EXTT7=
EXTT8=
EXTT9=
EXTT10=
EXTT11=
EXTT12=
EXTT13=
EXTT14=
PLAYORDER=
